nColumns=19
nRows=91
DataType=double
version=3
OpenSimVersion=4.1
endheader
time	ground_force_1_vx	ground_force_1_vy	ground_force_1_vz	ground_force_1_px	ground_force_1_py	ground_force_1_pz	ground_force_1_mx	ground_force_1_my	ground_force_1_mz	ground_force_2_vx	ground_force_2_vy	ground_force_2_vz	ground_force_2_px	ground_force_2_py	ground_force_2_pz	ground_force_2_mx	ground_force_2_my	ground_force_2_mz
1.4	0	0	0	-0.000900757	0	-0.000108287	0	0	0	-99.6789	2197.68	83.9475	0.691327	0	-0.408807	0	-14.0126	0
1.41	0	0	0	-0.000900992	0	-0.000108309	0	0	0	14.8982	2142.75	76.0434	0.646521	0	-0.412088	0	-13.8285	0
1.42	0	0	0	-0.000901227	0	-0.00010833	0	0	0	115.86	2020.41	68.9946	0.6044	0	-0.411817	0	-12.1255	0
1.43	0	0	0	-0.000901461	0	-0.000108351	0	0	0	199.986	1827.26	62.1098	0.564408	0	-0.408956	0	-8.81937	0
1.44	0	0	0	-0.000901695	0	-0.000108373	0	0	0	268.091	1551.81	41.0308	0.520728	0	-0.407806	0	-4.32067	0
1.45	0	0	0	-0.000901929	0	-0.000108394	0	0	0	301.153	1212.56	11.2756	0.472656	0	-0.409531	-0	0.450453	-0
1.46	0	0	0	-0.000902162	0	-0.000108415	0	0	0	281.572	858.861	-8.10542	0.427025	0	-0.410485	-0	4.37817	-0
1.47	0	0	0	-0.000902395	0	-0.000108436	0	0	0	216.334	543.146	-12.8769	0.396181	0	-0.407014	-0	6.67047	-0
1.48	0	0	0	-0.000902628	0	-0.000108457	0	0	0	130.995	295.17	-13.5863	0.386626	0	-0.40436	-0	7.15828	-0
1.49	0	0	0	-0.00090286	0	-0.000108478	0	0	0	60.4199	126.1	-14.8363	0.369443	0	-0.417548	-0	6.21059	-0
1.5	0	0	0	-0.000903092	0	-0.0001085	0	0	0	22.3043	40.5976	-12.0309	0.303149	0	-0.443773	-0	4.47619	-0
1.51	0	0	0	-0.000903323	0	-0.000108521	0	0	0	7.18028	16.6982	-4.66107	0.447886	0	-0.3254	-0	2.64771	-0
1.52	0	0	0	-0.000903554	0	-0.000108542	0	0	0	-0.581552	10.785	0.539686	0.811574	0	-0.149217	-0	1.25368	-0
1.53	0	0	0	-0.000903784	0	-0.000108562	0	0	0	0	0	0	-0.000903329	0	-0.00010854	0	0	0
1.54	0	0	0	-0.000904014	0	-0.000108583	0	0	0	0	0	0	-0.000903554	0	-0.00010856	0	0	0
1.55	0	0	0	-0.000904243	0	-0.000108604	0	0	0	0	0	0	-0.000903778	0	-0.000108581	0	0	0
1.56	0	0	0	-0.000904471	0	-0.000108625	0	0	0	0	0	0	-0.000904001	0	-0.000108601	0	0	0
1.57	0	0	0	-0.000904698	0	-0.000108645	0	0	0	0	0	0	-0.000904224	0	-0.000108622	0	0	0
1.58	0	0	0	-0.000904925	0	-0.000108666	0	0	0	0	0	0	-0.000904446	0	-0.000108642	0	0	0
1.59	0	0	0	-0.000905151	0	-0.000108687	0	0	0	0	0	0	-0.000904668	0	-0.000108663	0	0	0
1.6	0	0	0	-0.000905376	0	-0.000108707	0	0	0	0	0	0	-0.000904888	0	-0.000108683	0	0	0
1.61	-10.2375	18.7786	-5.54765	0.993779	0	-0.213108	-0	0.343138	-0	0	0	0	-0.000905108	0	-0.000108703	0	0	0
1.62	-26.5205	81.9683	-15.6886	0.920182	0	-0.257453	-0	2.4685	-0	0	0	0	-0.000905326	0	-0.000108723	0	0	0
1.63	-80.3906	279.342	-30.5153	0.929423	0	-0.263627	-0	4.80139	-0	0	0	0	-0.000905544	0	-0.000108743	0	0	0
1.64	-160.147	667.039	-44.8134	0.924709	0	-0.268843	-0	6.51398	-0	0	0	0	-0.000905761	0	-0.000108763	0	0	0
1.65	-210.566	1158.87	-46.4404	0.900515	0	-0.27628	-0	6.95259	-0	0	0	0	-0.000905977	0	-0.000108783	0	0	0
1.66	-233.182	1598.76	-25.4886	0.866669	0	-0.284136	-0	6.08998	-0	0	0	0	-0.000906191	0	-0.000108802	0	0	0
1.67	-264.715	1899.41	8.59377	0.834094	0	-0.289678	-0	4.6713	-0	0	0	0	-0.000906405	0	-0.000108822	0	0	0
1.68	-272.153	2088.94	28.8473	0.801086	0	-0.292963	-0	3.8301	-0	0	0	0	-0.000906618	0	-0.000108841	0	0	0
1.69	-225.176	2230.41	20.6768	0.764738	0	-0.294804	-0	4.37504	-0	0	0	0	-0.000906829	0	-0.000108861	0	0	0
1.7	-147.656	2328.31	-2.31953	0.728773	0	-0.294455	-0	6.29934	-0	0	0	0	-0.00090704	0	-0.00010888	0	0	0
1.71	-75.4534	2353.33	-21.7299	0.695472	0	-0.292426	-0	8.86115	-0	0	0	0	-0.000907249	0	-0.000108899	0	0	0
1.72	-5.76003	2289.41	-33.5527	0.661558	0	-0.290859	-0	11.0524	-0	0	0	0	-0.000907457	0	-0.000108918	0	0	0
1.73	72.4037	2139.59	-37.4744	0.624629	0	-0.290556	-0	12.0777	-0	0	0	0	-0.000907663	0	-0.000108937	0	0	0
1.74	152.253	1908.4	-30.1313	0.585003	0	-0.290367	-0	11.649	-0	0	0	0	-0.000907869	0	-0.000108956	0	0	0
1.75	228.104	1595.8	-15.4798	0.541477	0	-0.289717	-0	10.0319	-0	0	0	0	-0.000908073	0	-0.000108975	0	0	0
1.76	275.54	1225.39	-4.48499	0.495953	0	-0.288895	-0	7.82989	-0	0	0	0	-0.000908275	0	-0.000108993	0	0	0
1.77	259.586	845.149	-1.89729	0.452785	0	-0.287898	-0	5.64232	-0	0	0	0	-0.000908476	0	-0.000109012	0	0	0
1.78	189.81	507.527	-3.4979	0.413245	0	-0.286075	-0	3.83418	-0	0	0	0	-0.000908676	0	-0.00010903	0	0	0
1.79	105.531	258.614	-4.33764	0.391396	0	-0.281623	-0	2.51946	-0	0	0	0	-0.000908875	0	-0.000109048	0	0	0
1.8	41.2553	108.289	-3.2629	0.403935	0	-0.27168	-0	1.66204	-0	0	0	0	-0.000909071	0	-0.000109066	0	0	0
1.81	8.75061	35.4879	-1.45149	0.442548	0	-0.245055	-0	1.16395	-0	0	0	0	-0.000909267	0	-0.000109084	0	0	0
1.82	-2.06698	10.7333	-0.00460212	0.689323	0	-0.155437	-0	0.901739	-0	0	0	0	-0.000909461	0	-0.000109102	0	0	0
1.83	0	0	0	-0.000910238	0	-0.000109149	0	0	0	0	0	0	-0.000909653	0	-0.00010912	0	0	0
1.84	0	0	0	-0.000910432	0	-0.000109166	0	0	0	0	0	0	-0.000909843	0	-0.000109137	0	0	0
1.85	0	0	0	-0.000910625	0	-0.000109184	0	0	0	0	0	0	-0.000910032	0	-0.000109154	0	0	0
1.86	0	0	0	-0.000910816	0	-0.000109201	0	0	0	0	0	0	-0.00091022	0	-0.000109172	0	0	0
1.87	0	0	0	-0.000911006	0	-0.000109218	0	0	0	0	0	0	-0.000910405	0	-0.000109189	0	0	0
1.88	0	0	0	-0.000911193	0	-0.000109235	0	0	0	0	0	0	-0.000910589	0	-0.000109205	0	0	0
1.89	0	0	0	-0.000911379	0	-0.000109252	0	0	0	0	0	0	-0.000910771	0	-0.000109222	0	0	0
1.9	0	0	0	-0.000911563	0	-0.000109269	0	0	0	0	0	0	-0.000910951	0	-0.000109239	0	0	0
1.91	0	0	0	-0.000911745	0	-0.000109286	0	0	0	0	0	0	-0.00091113	0	-0.000109255	0	0	0
1.92	0	0	0	-0.000911926	0	-0.000109302	0	0	0	0	0	0	-0.000911306	0	-0.000109271	0	0	0
1.93	0	0	0	-0.000912104	0	-0.000109318	0	0	0	-7.84301	12.574	-3.12314	0.829635	0	-0.373442	-0	5.7227	-0
1.94	0	0	0	-0.00091228	0	-0.000109334	0	0	0	-25.227	52.5999	-3.703	0.89716	0	-0.438397	-0	4.44501	-0
1.95	0	0	0	-0.000912455	0	-0.00010935	0	0	0	-77.6509	193.992	3.5725	0.910962	0	-0.442928	-0	1.22955	-0
1.96	0	0	0	-0.000912627	0	-0.000109366	0	0	0	-173.006	513.945	27.3976	0.912944	0	-0.432049	0	-3.39436	0
1.97	0	0	0	-0.000912798	0	-0.000109381	0	0	0	-258.983	979.878	63.3874	0.899145	0	-0.419222	0	-8.1513	0
1.98	0	0	0	-0.000912966	0	-0.000109396	0	0	0	-291.799	1470.91	84.1626	0.86848	0	-0.409119	0	-11.5632	0
1.99	0	0	0	-0.000913132	0	-0.000109412	0	0	0	-300.266	1874.38	66.4423	0.831028	0	-0.404024	0	-12.8019	0
2	0	0	0	-0.000913296	0	-0.000109426	0	0	0	-289.2	2133.4	26.0951	0.792884	0	-0.402238	0	-12.1865	0
2.01	0	0	0	-0.000913458	0	-0.000109441	0	0	0	-249.012	2288.06	1.11349	0.754236	0	-0.400626	0	-10.825	0
2.02	0	0	0	-0.000913618	0	-0.000109456	0	0	0	-179.056	2378.24	5.11387	0.715565	0	-0.398798	0	-9.71467	0
2.03	0	0	0	-0.000913776	0	-0.00010947	0	0	0	-85.0107	2386.21	19.3042	0.675966	0	-0.398519	0	-9.11187	0
2.04	0	0	0	-0.000913932	0	-0.000109484	0	0	0	25.2239	2289.77	25.3688	0.633505	0	-0.39983	0	-8.58515	0
2.05	0	0	0	-0.000914085	0	-0.000109498	0	0	0	143.072	2092.44	23.9298	0.588529	0	-0.400785	0	-7.4814	0
2.06	0	0	0	-0.000914236	0	-0.000109512	0	0	0	243.742	1807.57	20.0675	0.544146	0	-0.400203	0	-5.3741	0
2.07	0	0	0	-0.000914385	0	-0.000109525	0	0	0	300.797	1450.3	11.2673	0.503104	0	-0.398847	0	-2.32355	0
2.08	0	0	0	-0.000914531	0	-0.000109539	0	0	0	302.224	1044.97	-3.97657	0.464218	0	-0.398842	-0	1.07709	-0
2.09	0	0	0	-0.000914675	0	-0.000109552	0	0	0	255.021	646.698	-18.0739	0.420544	0	-0.402124	-0	3.92565	-0
2.1	0	0	0	-0.000914817	0	-0.000109565	0	0	0	176.24	333.76	-21.9568	0.372852	0	-0.407948	-0	5.46003	-0
2.11	0	0	0	-0.000914956	0	-0.000109577	0	0	0	90.7567	145.774	-15.3214	0.368772	0	-0.406955	-0	5.46704	-0
2.12	0	0	0	-0.000915093	0	-0.00010959	0	0	0	29.4095	54.5675	-6.10839	0.475055	0	-0.382324	-0	4.35576	-0
2.13	0	0	0	-0.000915228	0	-0.000109602	0	0	0	5.96492	18.4653	-1.69589	0.636672	0	-0.311818	-0	2.85802	-0
2.14	0	0	0	-0.00091536	0	-0.000109614	0	0	0	0	0	0	-0.000914672	0	-0.00010958	0	0	0
2.15	0	0	0	-0.00091549	0	-0.000109626	0	0	0	0	0	0	-0.000914799	0	-0.000109591	0	0	0
2.16	0	0	0	-0.000915617	0	-0.000109637	0	0	0	0	0	0	-0.000914924	0	-0.000109603	0	0	0
2.17	0	0	0	-0.000915742	0	-0.000109649	0	0	0	0	0	0	-0.000915046	0	-0.000109614	0	0	0
2.18	0	0	0	-0.000915864	0	-0.00010966	0	0	0	0	0	0	-0.000915166	0	-0.000109625	0	0	0
2.19	0	0	0	-0.000915984	0	-0.000109671	0	0	0	0	0	0	-0.000915283	0	-0.000109636	0	0	0
2.2	0	0	0	-0.000916101	0	-0.000109681	0	0	0	0	0	0	-0.000915398	0	-0.000109646	0	0	0
2.21	0	0	0	-0.000916216	0	-0.000109692	0	0	0	0	0	0	-0.00091551	0	-0.000109657	0	0	0
2.22	0	0	0	-0.000916328	0	-0.000109702	0	0	0	0	0	0	-0.00091562	0	-0.000109667	0	0	0
2.23	-5.47879	12.1003	-3.62003	0.947282	0	-0.227017	-0	0.333638	-0	0	0	0	-0.000915727	0	-0.000109676	0	0	0
2.24	-18.1804	52.1414	-9.80307	0.910646	0	-0.26646	-0	1.16233	-0	0	0	0	-0.000915832	0	-0.000109686	0	0	0
2.25	-60.8871	186.972	-19.749	0.922807	0	-0.273257	-0	2.07171	-0	0	0	0	-0.000915934	0	-0.000109695	0	0	0
2.26	-134.837	473.639	-30.5498	0.925821	0	-0.276989	-0	2.49646	-0	0	0	0	-0.000916033	0	-0.000109704	0	0	0
2.27	-191.456	871.893	-34.5273	0.905867	0	-0.282901	-0	1.95886	-0	0	0	0	-0.00091613	0	-0.000109713	0	0	0
2.28	-201.856	1287.31	-22.9494	0.865936	0	-0.290829	-0	0.43049	-0	0	0	0	-0.000916224	0	-0.000109722	0	0	0
2.29	-208.336	1647.53	4.46693	0.82393	0	-0.297402	0	-1.47553	0	0	0	0	-0.000916316	0	-0.00010973	0	0	0
2.3	-222.026	1910.5	31.6511	0.787038	0	-0.300937	0	-2.70222	0	0	0	0	-0.000916405	0	-0.000109739	0	0	0
